<svg id="Capa_1" data-name="Capa 1" xmlns="http://www.w3.org/2000/svg" viewBox="0 0 87.33 33.33"><defs><style>.cls-1{fill:#fff;}</style></defs><title>Logo - eco - app</title><path class="cls-1" d="M39.61,20.93c-1-.19-1.63-.4-2.28-.51a4.77,4.77,0,0,0-1-.1c-.17,0-.64.07-.64.27s.33.38.8.68l.11.07h.3a1.17,1.17,0,0,1,0,2.32h-2V21.34h1.1a1.83,1.83,0,0,1-.32-.14,1.52,1.52,0,0,1-.85-1.4.14.14,0,0,0,0-.08s-.05-.06-.1-.06a.72.72,0,0,1-.58-.28H32.44v5.85a12.92,12.92,0,0,1,1.35.25,10.4,10.4,0,0,1,1.05.33v-.19h2a3.07,3.07,0,0,0,3.3-3.12A3.13,3.13,0,0,0,39.79,21Zm-7.17,4.73v2.95h2.4V26.3l-.65-.22A12.47,12.47,0,0,0,32.44,25.66Zm4.88-6a.74.74,0,0,0,.34.08,4.13,4.13,0,0,0,.68-.1,3.11,3.11,0,0,0-.54-.18,1.14,1.14,0,0,0-.3.21,1,1,0,0,1-.17,0s0,0,0,0S37.29,19.68,37.32,19.69Zm.58.37c-.09,0-.38-.07-.39-.06a1.72,1.72,0,0,0,.38.1c.17,0,.49.13.7.16s.59.1.8.15a2.43,2.43,0,0,0-.54-.47C38.47,20,38,20.07,37.9,20.06Zm40.43,6.52v-7.2h-2.4v9.23h5.94v-2Zm-8-7.42A4.49,4.49,0,0,0,65.78,24c0,2.64,1.65,4.87,4.54,4.87s4.51-2.32,4.51-4.8C74.83,21.39,73.18,19.16,70.29,19.16Zm.09,7.73c-1,0-2.23-.72-2.23-3,0-1.68.83-2.82,2.14-2.82,1,0,2.17.81,2.17,3C72.46,25.71,71.63,26.89,70.38,26.89ZM45.76,19.24l0,0c.09,0,.37.24.5.34a3.09,3.09,0,0,1,.34.27c.06.06.22.22.15.33s-.05,0-.28-.13-.4-.33-.59-.43a2.13,2.13,0,0,0-1.17-.37,3.39,3.39,0,0,1-.58,0h-.31A4.56,4.56,0,0,0,40.65,24c0,2.64,1.57,4.87,4.36,4.87A4.51,4.51,0,0,0,49,27L47.52,25.8a2.75,2.75,0,0,1-2.24,1.09A2.16,2.16,0,0,1,43,24.81h6c0-.24,0-.48,0-.72C49,21,47.44,19.57,45.76,19.24ZM43,23a1.9,1.9,0,0,1,1.81-2,1.87,1.87,0,0,1,1.81,2Zm22.13-.66a3,3,0,0,0-3.3-2.94H57.41v9.23h2.4V25.25h.86l2,3.36h2.74L63.22,25A2.84,2.84,0,0,0,65.14,22.32Zm-3.3,1.1h-2V21.3h2a1.06,1.06,0,0,1,0,2.12Zm-7.22-3.55s-.2,0-.58-.27a1.8,1.8,0,0,0-.37-.22h-.51l0,0a1,1,0,0,1,.29.5,1,1,0,0,1,0,.42s-.14-.25-.22-.46a.88.88,0,0,0-.53-.5h-.52l.08.18a2.4,2.4,0,0,1,.14.28.69.69,0,0,1,0,.47s-.14,0-.4-.46a1.13,1.13,0,0,0-.38-.47h-2.4v2h2.42v7.2h2.4v-7.2h2.42v-2H54A3.65,3.65,0,0,1,54.62,19.87Z"/><path class="cls-1" d="M8.93,19.17c1.93,0,4.06,1.36,4.06,4.92,0,.24,0,.48,0,.72h-6A2.17,2.17,0,0,0,9.24,26.9a2.73,2.73,0,0,0,2.23-1.09L12.93,27a4.53,4.53,0,0,1-4,1.84c-2.78,0-4.35-2.23-4.35-4.87,0-2.47,1.51-4.79,4.32-4.79M7,23h3.62a1.87,1.87,0,0,0-1.81-2A1.91,1.91,0,0,0,7,23m2-3.62a3.83,3.83,0,0,0-3.07,1.4A5.07,5.07,0,0,0,4.8,24a5.19,5.19,0,0,0,1.09,3.31A3.85,3.85,0,0,0,9,28.64,4.32,4.32,0,0,0,12.66,27l-1.16-.94a3,3,0,0,1-2.26,1,2.36,2.36,0,0,1-2.5-2.27v-.2h6a4.58,4.58,0,0,0,0-.53c0-3.49-2.09-4.73-3.87-4.73M6.78,23.18V23a2.09,2.09,0,0,1,2-2.2,2.06,2.06,0,0,1,2,2.2v.2h-4Z"/><path class="cls-1" d="M34.68,25.58c-.46-.15-1.55-.36-2.18-.48a33.87,33.87,0,0,0-3.8-.38,31.43,31.43,0,0,0-4,.05h-.15s0,.08,0,.12h.15a33.35,33.35,0,0,1,3.67-.08,38.78,38.78,0,0,1,5.41.67c1.72.46,2,.82,1.93.93s-1.07-.18-1.53-.33a14.28,14.28,0,0,0-2.53-.55,30.09,30.09,0,0,0-3.93-.23c-.09,0-.09-.17-.09-.22s.05-.2,0-.21a.25.25,0,0,0-.1.22.3.3,0,0,0,.06.21s-1.14.05-1.93.17l-.93.14a.42.42,0,0,0,0,.1c.91-.13,1.77-.25,2.24-.29a19.26,19.26,0,0,1,4,.16,13.87,13.87,0,0,1,3.62.81c.29.09,1.07.43,1.21,0S35.16,25.74,34.68,25.58ZM18.31,24a1.2,1.2,0,0,1,1.13-.74c.44,0,.55.14.55.14a2.3,2.3,0,0,0,1.1,1.24,3.83,3.83,0,0,0,1.5.32l0-.14h-.07c-1.6-.13-2.54-.92-2.54-2.47a2.63,2.63,0,0,1,0-.49l-.13-.17a2.55,2.55,0,0,0-.06.51,4.24,4.24,0,0,0,.11.94,2,2,0,0,0-.46,0C19,23.14,18.31,23.41,18.31,24ZM50.07,5.41a.63.63,0,0,1,.29-.35l.12,0-.1.06a.32.32,0,0,0-.16.26.58.58,0,0,0,.06.26.34.34,0,0,0,.16.15.81.81,0,0,0,.27,0A.44.44,0,0,0,51,5.69a.39.39,0,0,0,.09-.41l0-.07.08,0s0,0,0,0A.94.94,0,0,0,50.89,5,.81.81,0,0,0,50.33,5c-.17,0-.41.33-.34.49S50.06,5.44,50.07,5.41Zm.52-.32h0a.32.32,0,0,0-.12.39.33.33,0,0,0,.39.16A.28.28,0,0,0,51,5.56a.26.26,0,0,1-.14.13.57.57,0,0,1-.29,0,.33.33,0,0,1-.25-.19.29.29,0,0,1,.11-.35A.25.25,0,0,1,50.59,5.09ZM21.46,25.92a.48.48,0,0,1-.14-.4c0-.24.26-.39.38-.46s.11-.06.1-.07-.07,0-.12,0-.43.22-.46.48a.74.74,0,0,0,.07.41A3.93,3.93,0,0,1,20,25.7a3.31,3.31,0,0,1-2.42-2.86A6.66,6.66,0,0,1,17.75,21s0,0,0,0l-.18,0a.08.08,0,0,0,0,0,6,6,0,0,0-.14,1.83,3.31,3.31,0,0,0,2.42,3,7.44,7.44,0,0,0,3,.14.76.76,0,0,0,0-.11A7.93,7.93,0,0,1,21.46,25.92ZM49.64,9.21a1,1,0,0,0,.93.27A.68.68,0,0,0,51.11,9a.59.59,0,0,0,0-.14c0-.27-.29-1-1-.83h0a.94.94,0,0,0-.39.2.74.74,0,0,0-.26.63A.7.7,0,0,0,49.64,9.21Zm.28-1.08A.83.83,0,0,1,50.21,8h.08a2,2,0,0,1,.39.07l.09.07-.09-.05s0,0,0,0a.71.71,0,0,1,.33.67s0,.06,0,.09a.66.66,0,0,1-.41.42,1,1,0,0,1-.8-.15C49.52,9,49.57,8.48,49.92,8.13Zm-.55-.27a.64.64,0,0,1,0-.07.11.11,0,0,0,0,0,.41.41,0,0,0,0-.31A.5.5,0,0,0,49,7.28c-.29,0-.51.13-.47.32s.18.47.47.47A.46.46,0,0,0,49.37,7.86ZM49,7.94a.37.37,0,0,1-.44-.34A.37.37,0,0,1,49,7.35c.12,0,.27,0,.32.13v0a.48.48,0,0,1,0,.24C49.25,7.89,49.1,7.93,49,7.94Zm5.76-2.09a.33.33,0,0,0,0-.13l0,0h0a.1.1,0,0,0-.09,0c-.14,0-.26.21-.18.33A.19.19,0,0,0,54.74,5.85Zm-4.09,7c1.1-.54,1.55-2.11,1.83-3.23,0-.1.16-.27.24-.44a2.09,2.09,0,0,1,.48-.75C54,7.53,55.05,7.24,55,6.24a1.27,1.27,0,0,0,.19-.5.79.79,0,0,0-.2-.41,1.83,1.83,0,0,0-1-.46c-.38-.11-1.12-.07-1.47-.17a5.52,5.52,0,0,0-1.72-.48A3.42,3.42,0,0,0,48.94,5a14.54,14.54,0,0,0-1.15.92c-.07,0-.59.44-.69.53s-2.74-.18-2.74.57c0,.23.35.71,0,.69s-1.7,0-1.39.45.47.61-.13.55-1.61.09-1.08.66c.19.21.4.43-.25.33s-1.68-.1-1.17.58c.25.34.43.56-.32.43s-1.58.09-1.11.62c.25.27.49.52-.28.33s-1.31-.1-1,.44c.22.37.17.39-.25.31s-1.22-.09-.83.44c.22.31.07.48-.38.48s-.85-.07-.85.29-.2.4-.73.6c-.24.09-1.64.61-2.77,1-1.73.52-4.95.41-8.48,1.33a9.39,9.39,0,0,0-4.78,2.75l-.12.15.22,0,.11-.14a7.87,7.87,0,0,1,3.67-2.32,19.57,19.57,0,0,1,4.28-1c3.3-.36,4.14-.47,5.58-.72a14.05,14.05,0,0,1,3.36-.55c1,0,1.09,1,.9,1.73a21.11,21.11,0,0,1-.67,2.1c-.16.35-.21.61-.15.69a1.15,1.15,0,0,0,1.2-.17c.63-.4,1.28-.81,1.39-.65s-.21.37-.53.52a3.6,3.6,0,0,0-.55.26,1.3,1.3,0,0,1-.21,0l-.1,0a1.76,1.76,0,0,0,.52,0c.24-.05.76-.18,1.13-.3a1.22,1.22,0,0,1,.77-.05c0,.06-.1.2-.58.32a2.67,2.67,0,0,0-1.26.5,1,1,0,0,1-.17,0s0,0,0,0,0,0,0,0a.74.74,0,0,0,.34.08,4,4,0,0,0,.79-.13c.28-.06,1.2-.23,1.55-.28s.84-.18,1,0,0,.14-.47.28a11.61,11.61,0,0,1-1.29.26c-.28.05-1.22.19-1.3.18s-.38-.07-.39-.06a1.72,1.72,0,0,0,.38.1c.17,0,.49.13.7.16s.64.11.85.16a3.11,3.11,0,0,1,.84.29,1.5,1.5,0,0,1,.39.28s-.07.14-1.06-.06-1.63-.4-2.28-.51a4.77,4.77,0,0,0-1-.1c-.17,0-.64.07-.64.27s.33.38.8.68.42.38.39.44-.07.12-.56-.22c-.12-.08-.46-.16-.69-.29a1.52,1.52,0,0,1-.85-1.4.14.14,0,0,0,0-.08s-.05-.06-.1-.06c-.24,0-.85-.1-.85-1.38a2.52,2.52,0,0,1,1.07-2.19C35,16,35,16,35,16s-.08,0-.14,0a3.26,3.26,0,0,0-1,1.54,2.13,2.13,0,0,1-1,.23c-.59,0-1.13-.35-1.39-1.26,0,0,0-.13-.05-.13s0,.07,0,.14a1.55,1.55,0,0,0,1.45,1.41,1.81,1.81,0,0,0,1-.18,3.54,3.54,0,0,0,.12,1.56s-1.26-.07-1.9-.08l-2.51-.06s.8-.31.92-1.67-.52-1.71-.52-1.71a2.3,2.3,0,0,1,.37,1.81c-.14.9-.75,1.6-1.27,1.55l-1.53-.06L26.05,19a2.45,2.45,0,0,0,.43-1.44A1.84,1.84,0,0,0,26,16.26a1.81,1.81,0,0,1,.35,1.34A2.27,2.27,0,0,1,26,18.83a1.94,1.94,0,0,0-.2.21A9.1,9.1,0,0,0,23,19.3s.27-.24.27-1a1.77,1.77,0,0,0-.55-1.23,1.73,1.73,0,0,1,.4,1.23,1.61,1.61,0,0,1-.23.89c-.05.06-.07.1,0,.15a4.8,4.8,0,0,0-1.72.73,3.8,3.8,0,0,0-.34.27l.09.09a1,1,0,0,1,.15-.14,5.4,5.4,0,0,1,2.66-1,24,24,0,0,1,3.44-.08c.5,0,2.5.12,3.73.16l3.13.13a.68.68,0,0,0,.66.31,2.18,2.18,0,0,0,.19.75,1.52,1.52,0,0,0,.67.74c.1,0,.53.17.73.27s.63.46.77.25-.21-.5-.45-.66-.73-.45-.7-.56.3-.16.78-.12c.82.07,2.62.49,3.24.62s.94,0,.94-.1-.28-.35-.56-.47a8,8,0,0,0-1.42-.36l-.65-.08a10.53,10.53,0,0,0,1.94-.25c.56-.11,1-.24,1-.48s-.51-.21-.51-.21c-.46.05-1.36.21-1.36.21a9.79,9.79,0,0,1-1.56.31,2.75,2.75,0,0,1,.86-.3,2.8,2.8,0,0,0,.8-.28s1-.17,1.48-.23S42,18.81,42,18.81a4,4,0,0,0,2.88.57,2.74,2.74,0,0,1,1.56.75c.17.13.33.22.42.16s0-.37-.14-.5a2.42,2.42,0,0,0-.46-.35l-.34-.19a1.85,1.85,0,0,1,1.28.57c.29.23.42.24.49.17s-.3-.54-.53-.72a1.42,1.42,0,0,0-.68-.27,2,2,0,0,1,1.13.07c.72.3.57,0,.49-.15a1.53,1.53,0,0,0-1.14-.4,17,17,0,0,1-2.13.19,3.06,3.06,0,0,1-1.07-.35,8.33,8.33,0,0,0,2.08-.72,5.93,5.93,0,0,0,1.86-1.3A6.69,6.69,0,0,0,49,18.79a2.5,2.5,0,0,0,1.75.52c.81.06,1,.16,1.33.72.26.39.37.42.44.38s.08-.38,0-.53-.28-.55-.28-.55.83.18.95.64.24.53.3.51.08-.28,0-.56a1.37,1.37,0,0,0-.29-.57,3,3,0,0,1,.81.41c.31.19.65.28.71.19s-.13-.21-.23-.3a5.48,5.48,0,0,0-.85-.6,6.79,6.79,0,0,0-1.9-.47c-1.22-.26-1.54-.4-1.87-.86a5,5,0,0,1-.5-2.14,7,7,0,0,0-.26-1.66,1.8,1.8,0,0,0,0-.88A2.16,2.16,0,0,0,50.65,12.89ZM34,14.54c1.22-.48,1.45-.41,1.49-.84,0-.2.1-.27.65-.27.86,0,.76-.39.6-.62s-.07-.41.47-.29c.71.17.88,0,.67-.4s0-.53.53-.38c1,.29,1.08,0,.72-.38s-.1-.71.62-.55c1.07.25,1.1-.18.85-.44s-.43-.75.67-.57,1-.17.76-.43-.36-.67.53-.56c1.24.16,1-.21.78-.5-.42-.62.58-.47,1.08-.44s.45-.42.29-.68c-.36-.64,2-.56,2-.56S45.8,7.26,44.85,8s-3.12,2.45-4.67,3.5a36.45,36.45,0,0,1-4.76,2.63,15.18,15.18,0,0,1-3.12,1A11,11,0,0,0,34,14.54ZM49.36,16c0,.42.21,1.72.67,2.09a6.39,6.39,0,0,0,2.27.72,4.71,4.71,0,0,1,1.3.37,3.94,3.94,0,0,1,1,.68s-.2,0-.58-.27a1.29,1.29,0,0,0-.82-.31.89.89,0,0,0-.48-.24,3.19,3.19,0,0,1,.45.37,1,1,0,0,1,.29.5,1,1,0,0,1,0,.42s-.14-.25-.22-.46-.38-.55-1.05-.61l0,0s0,0,0,0,0,0,0,.06l.14.31a2.4,2.4,0,0,1,.14.28.69.69,0,0,1,0,.47s-.14,0-.4-.46a.91.91,0,0,0-.85-.6A5.89,5.89,0,0,1,49.51,19a2.28,2.28,0,0,1-.95-1c-.16-.27-.46-1-.54-1.12s-.19-.56-.24-.64a5.09,5.09,0,0,0,.79-.9,4.75,4.75,0,0,0,.55-1.11S49.31,15.59,49.36,16ZM48,12.12h0A1.78,1.78,0,0,0,49,13a1.36,1.36,0,0,1,.08.51,3.78,3.78,0,0,1-1.38,2.61,6.29,6.29,0,0,1-2,1.42,8.87,8.87,0,0,1-2.16.72,2.65,2.65,0,0,1-1.41-1.95c-.3-1.49,3.17-2.47,4.25-2.86s1.39-1.09,1.07-2.18c0,0,0-.09-.09-.07s-.06.05,0,.09c.24,1,0,1.52-.78,1.88-.33.15-.68.24-1,.37a15,15,0,0,0-1.93.84c-1.56.85-1.92,1.37-1.41,2.6a3.31,3.31,0,0,0,3,1.89c1,0,.86-.23,1.86-.23A1.37,1.37,0,0,1,48,19c.15.19-.21.07-.41,0a1.63,1.63,0,0,0-1.27,0,.35.35,0,0,1-.21,0s0,.08.36.13a1.52,1.52,0,0,1,.76.38c.28.2.43.41.36.48s-.46-.21-.67-.41a1.21,1.21,0,0,0-1.09-.29l-.06,0s0,0,0,0,0,0,.07.09.37.24.5.34a3.09,3.09,0,0,1,.34.27c.06.06.22.22.15.33s-.05,0-.28-.13-.4-.33-.59-.43a2.13,2.13,0,0,0-1.17-.37,3.39,3.39,0,0,1-.58,0,3.78,3.78,0,0,1-2.73-1.1C40,17,40,16.05,40,16a3.17,3.17,0,0,1,.82-2,19.23,19.23,0,0,1,1.62-1.64l.84-.7s.06-.07,0-.11-.08,0-.12,0l-.84.71c-.13.1-.94.85-1.22,1.15a9.16,9.16,0,0,0-.95,1.25A3.13,3.13,0,0,0,39.76,16a2.77,2.77,0,0,0,.69,1.45A6.67,6.67,0,0,0,41.8,18.7a8.17,8.17,0,0,0-1.24.07c-.64.1-1.14.23-1.14.23s0,0,0,0a.14.14,0,0,0,0-.08c0-.07-.16-.15-.3-.15a5.43,5.43,0,0,0-.76.12c-.29.07-.76.22-.76.22s.92-.4.74-.74c0-.08-.23-.2-1.12.35s-1.28.57-1.38.42,0-.45.18-.73a10.27,10.27,0,0,0,.58-1.69c.11-.53.33-1.29-.16-1.8s-1.91-.25-2.29-.15c0,0,.38-.17.61-.25a15.54,15.54,0,0,0,2.11-.85c.79-.41,2-1.09,2.59-1.49s3.2-2.23,3.38-2.37S45.36,8,45.68,7.69,47.74,6.13,47.92,6s.88-.7,1.14-.87a2.77,2.77,0,0,1,1.72-.71,5.79,5.79,0,0,1,1.74.4c.44.09,1.12.12,1.53.22s1,.29,1,.75-.61.76-1,1a11.07,11.07,0,0,1-1.43.49,5.4,5.4,0,0,1-1.38.25c-.5,0-.63-.24-.64-.26s0,0,0,0,0,0,0,.06.1.38.8.38a5.83,5.83,0,0,0,2-.47,10.38,10.38,0,0,0,1.14-.5,1.55,1.55,0,0,0,.43-.36,1.61,1.61,0,0,1-.28.65c-.51.65-1.63,1.32-2.05,2.24h0a3.14,3.14,0,0,1-.74,1.11,2.65,2.65,0,0,1-2.74.33h0a2.52,2.52,0,0,0,2.24.09,2,2,0,0,0,.83-.56c-.23.55-.39,1.14-.67,1.67A2,2,0,0,1,48,12.12Z"/><path class="cls-1" d="M18.08,19.16a4.06,4.06,0,0,1,3.76,2.29l-1.8.91a2.08,2.08,0,0,0-1.87-1.26c-1.29,0-2.08,1.14-2.08,2.82,0,2.26,1.16,3,2.17,3A1.9,1.9,0,0,0,20,25.73l1.77.94a4,4,0,0,1-3.67,2.16c-2.79,0-4.36-2.23-4.36-4.87,0-2.47,1.51-4.8,4.32-4.8m0,.19A3.82,3.82,0,0,0,15,20.76,5,5,0,0,0,14,24,5.14,5.14,0,0,0,15,27.26a3.88,3.88,0,0,0,3.08,1.38,3.83,3.83,0,0,0,3.4-1.89L20.1,26a2.07,2.07,0,0,1-1.84,1.1c-1.14,0-2.36-.84-2.36-3.17,0-1.83.89-3,2.27-3a2.23,2.23,0,0,1,1.95,1.19l1.46-.73a3.86,3.86,0,0,0-3.5-2"/><path class="cls-1" d="M26.81,19.17c2.89,0,4.54,2.23,4.54,4.87a6.51,6.51,0,0,1-.1,1,22.89,22.89,0,0,0-2.33-.2,6,6,0,0,0,.06-.75c0-2.16-1.16-3-2.17-3-1.31,0-2.14,1.15-2.14,2.83,0,2.25,1.19,3,2.23,3a2,2,0,0,0,1.79-1.29l.11-.31c.61,0,1.41.08,2.36.18-.05.16-.13.41-.19.57a4.24,4.24,0,0,1-4.13,2.78C24,28.83,22.3,26.6,22.3,24a4.48,4.48,0,0,1,4.51-4.79m0,.19c-3,0-4.32,2.38-4.32,4.6a5,5,0,0,0,1.14,3.3,4.1,4.1,0,0,0,3.21,1.38,4.07,4.07,0,0,0,4-2.66c0-.09.1-.32.14-.43-.67-.07-1.34-.12-2-.15,0,.06-.07.23-.09.28a2.12,2.12,0,0,1-2,1.41c-1.17,0-2.42-.83-2.42-3.16,0-1.81.93-3,2.33-3,1.17,0,2.36,1,2.36,3.16,0,.17,0,.51-.05.69.77.11,1,.09,1.94.19a8.25,8.25,0,0,0,.09-.91A5,5,0,0,0,30,20.74a4.1,4.1,0,0,0-3.21-1.38"/></svg>